<svg width="320" height="80" viewBox="0 0 320 80" xmlns="http://www.w3.org/2000/svg">
  <defs>
    <linearGradient id="accent" x1="0%" y1="0%" x2="100%" y2="100%">
      <stop offset="0%" style="stop-color:#6366f1"/>
      <stop offset="100%" style="stop-color:#8b5cf6"/>
    </linearGradient>
    <filter id="glow">
      <feGaussianBlur stdDeviation="1.5" result="blur"/>
      <feMerge><feMergeNode in="blur"/><feMergeNode in="SourceGraphic"/></feMerge>
    </filter>
  </defs>

  <!-- Node A -->
  <rect x="8" y="24" width="36" height="32" rx="6" fill="#1e1e2e" stroke="#6366f1" stroke-width="1.5"/>
  <circle cx="44" cy="36" r="3.5" fill="#6366f1" filter="url(#glow)"/>
  <circle cx="44" cy="48" r="3.5" fill="#8b5cf6" filter="url(#glow)"/>
  <rect x="13" y="31" width="20" height="3" rx="1.5" fill="#6366f1" opacity="0.5"/>
  <rect x="13" y="37" width="14" height="3" rx="1.5" fill="#6366f1" opacity="0.3"/>
  <rect x="13" y="43" width="17" height="3" rx="1.5" fill="#6366f1" opacity="0.3"/>

  <!-- Node B -->
  <rect x="68" y="12" width="36" height="32" rx="6" fill="#1e1e2e" stroke="#8b5cf6" stroke-width="1.5"/>
  <circle cx="68" cy="24" r="3.5" fill="#6366f1" filter="url(#glow)"/>
  <circle cx="104" cy="24" r="3.5" fill="#8b5cf6" filter="url(#glow)"/>
  <rect x="73" y="19" width="20" height="3" rx="1.5" fill="#8b5cf6" opacity="0.5"/>
  <rect x="73" y="25" width="14" height="3" rx="1.5" fill="#8b5cf6" opacity="0.3"/>
  <rect x="73" y="31" width="17" height="3" rx="1.5" fill="#8b5cf6" opacity="0.3"/>

  <!-- Node C -->
  <rect x="68" y="52" width="36" height="22" rx="6" fill="#1e1e2e" stroke="#6366f1" stroke-width="1.5"/>
  <circle cx="68" cy="63" r="3.5" fill="#6366f1" filter="url(#glow)"/>
  <rect x="73" y="59" width="16" height="3" rx="1.5" fill="#6366f1" opacity="0.5"/>
  <rect x="73" y="65" width="12" height="3" rx="1.5" fill="#6366f1" opacity="0.3"/>

  <!-- Connections -->
  <path d="M44 36 C56 36, 56 24, 68 24" stroke="url(#accent)" stroke-width="1.5" fill="none" opacity="0.8"/>
  <path d="M44 48 C56 48, 56 63, 68 63" stroke="url(#accent)" stroke-width="1.5" fill="none" opacity="0.6"/>
  <path d="M104 24 C116 24, 116 24, 128 28" stroke="url(#accent)" stroke-width="1.5" fill="none" opacity="0.4" stroke-dasharray="3 2"/>

  <!-- Wordmark -->
  <text x="134" y="52" font-family="-apple-system, BlinkMacSystemFont, 'Segoe UI', sans-serif" font-size="30" font-weight="700" letter-spacing="-1" fill="url(#accent)">graphyn</text>
</svg>
